<svg xmlns="http://www.w3.org/2000/svg" viewBox="0 0 512 512" width="512" height="512">
  <!-- Emerald Green Squircle / App Badge -->
  <rect x="32" y="32" width="448" height="448" rx="112" ry="112" fill="#10B981" />
  
  <!-- Centered Black Solid Shield (Scaled Lucide Shield) -->
  <!-- Center is at (256, 256), scaled to fit 230px height -->
  <g transform="translate(256, 256) scale(11.5) translate(-12, -12)">
    <path 
      d="M20 13c0 5-3.5 7.5-7.66 8.95a1 1 0 0 1-.67-.01C7.5 20.5 4 18 4 13V6a1 1 0 0 1 1-1c2 0 4.5-1.2 6.24-2.72a1.17 1.17 0 0 1 1.52 0C14.51 3.81 17 5 19 5a1 1 0 0 1 1 1z" 
      fill="#000000" 
      stroke="#000000" 
      stroke-width="1.2" 
      stroke-linejoin="round" 
      stroke-linecap="round"
    />
  </g>
</svg>
